<svg width="75" height="15" viewBox="0 0 75 15" fill="none" xmlns="http://www.w3.org/2000/svg">
<rect width="4.69587" height="4.69587" rx="0.876722" fill="white"/>
<rect x="5.10352" width="4.69587" height="4.69587" rx="0.876722" fill="#FF7272"/>
<rect x="10.209" width="4.69587" height="4.69587" rx="0.876722" fill="white"/>
<rect y="5.10352" width="4.69587" height="4.69587" rx="0.876722" fill="white"/>
<rect x="5.10352" y="5.10352" width="4.69587" height="4.69587" rx="0.876722" fill="white"/>
<rect y="10.207" width="4.69587" height="4.69587" rx="0.876722" fill="white"/>
<path d="M21.1913 1.75391C17.4345 1.75391 14.9062 4.41745 14.9062 8.37725C14.9062 12.3371 17.4345 15.0006 21.1913 15.0006C24.9481 15.0006 27.4763 12.3371 27.4763 8.37725C27.4763 4.41745 24.9481 1.75391 21.1913 1.75391ZM21.1913 11.2361C19.8559 11.2361 19.1794 10.2772 19.1794 8.37725C19.1794 6.47726 19.8559 5.51838 21.1913 5.51838C22.5266 5.51838 23.2032 6.47726 23.2032 8.37725C23.2032 10.2772 22.5266 11.2361 21.1913 11.2361Z" fill="white"/>
<path d="M33.1509 11.272V1.91406H28.9668V14.8411H37.9938V11.272H33.1509Z" fill="white"/>
<path d="M44.5053 1.91406H39.4844V14.8411H44.5409C48.5113 14.8411 50.9862 12.3729 50.9862 8.3776C50.9862 4.38228 48.4935 1.91406 44.5053 1.91406ZM43.6685 5.62527H44.345C45.8941 5.62527 46.7843 6.06919 46.7843 8.3776C46.7843 10.686 45.8762 11.1299 44.4341 11.1299H43.6685V5.60751V5.62527Z" fill="white"/>
<path d="M62.0199 5.48321V1.91406H52.4766V14.8411H62.002V11.272H56.6607V10.1711H61.5925V6.58415H56.6607V5.48321H62.0199Z" fill="white"/>
<path d="M72.1806 10.0645C73.3735 9.30096 74.0323 8.04022 74.0323 6.44209C74.0323 3.68976 72.1094 1.91406 69.1182 1.91406H63.5098V14.8411H67.6939V10.8813H68.0678L70.1865 14.8411H74.7979L72.1806 10.0645ZM67.6939 5.46546H68.3882C69.7236 5.46546 69.7236 6.12246 69.7236 6.44209C69.7236 6.90377 69.6168 7.38321 68.3882 7.38321H67.6939V5.4477V5.46546Z" fill="white"/>
</svg>
