<svg width="269" height="178" viewBox="0 0 269 178" fill="none" xmlns="http://www.w3.org/2000/svg">
<rect width="70" height="70" rx="5.49169" fill="white"/>
<path d="M15.6732 29.3346L15.6732 36.5856C15.6732 37.3924 15.4805 38.103 15.0953 38.7172C14.7137 39.3315 14.1739 39.8094 13.4761 40.1511C12.7782 40.4891 11.9714 40.6581 11.0554 40.6581C10.1395 40.6581 9.33266 40.4891 8.63482 40.1511C7.93698 39.8094 7.39725 39.3315 7.01562 38.7172C6.63399 38.103 6.44317 37.3924 6.44317 36.5856L6.44317 29.3346H8.76021L8.76021 36.3893C8.76021 36.8182 8.85471 37.2016 9.04371 37.5396C9.23634 37.874 9.5053 38.1375 9.85059 38.3302C10.1995 38.5192 10.6011 38.6137 11.0554 38.6137C11.5134 38.6137 11.915 38.5192 12.2603 38.3302C12.6092 38.1375 12.8782 37.874 13.0672 37.5396C13.2562 37.2016 13.3507 36.8182 13.3507 36.3893L13.3507 29.3346H15.6732ZM26.8717 40.5H24.8654L19.9588 33.4071H19.877V40.5H17.5599V29.3346L19.5989 29.3346L24.4675 36.422H24.5656V29.3346H26.8717L26.8717 40.5ZM31.0709 40.5H28.7538L28.7538 29.3346H31.0709L31.0709 40.5ZM39.1301 36.6346L40.1496 37.9431L41.12 39.0716L42.9845 41.4214H40.8093L39.5281 39.8349L38.8847 38.919L37.1456 36.6346H39.1301ZM43.1645 34.9173C43.1645 36.1022 42.9373 37.1271 42.483 37.9921C42.0323 38.8535 41.4126 39.5132 40.6239 39.9712C39.8352 40.4255 38.9429 40.6527 37.947 40.6527C36.9511 40.6527 36.057 40.4255 35.2647 39.9712C34.476 39.5132 33.8563 38.8517 33.4056 37.9867C32.9586 37.1217 32.735 36.0985 32.735 34.9173C32.735 33.7324 32.9586 32.7075 33.4056 31.8424C33.8563 30.9738 34.476 30.3141 35.2647 29.8634C36.057 29.4091 36.9511 29.1819 37.947 29.1819C38.9429 29.1819 39.8352 29.4091 40.6239 29.8634C41.4126 30.3141 42.0323 30.9738 42.483 31.8424C42.9373 32.7075 43.1645 33.7324 43.1645 34.9173ZM40.8147 34.9173C40.8147 34.1322 40.6966 33.4653 40.4603 32.9165C40.2277 32.364 39.8952 31.946 39.4626 31.6625C39.0338 31.379 38.5286 31.2373 37.947 31.2373C37.3691 31.2373 36.8657 31.379 36.4369 31.6625C36.008 31.946 35.6754 32.364 35.4392 32.9165C35.2029 33.4653 35.0848 34.1322 35.0848 34.9173C35.0848 35.7024 35.2029 36.3693 35.4392 36.9181C35.6754 37.4669 36.008 37.8849 36.4369 38.1721C36.8657 38.4556 37.3691 38.5973 37.947 38.5973C38.5286 38.5973 39.0338 38.4556 39.4626 38.1721C39.8952 37.8849 40.2277 37.4669 40.4603 36.9181C40.6966 36.3693 40.8147 35.7024 40.8147 34.9173ZM54.0808 29.3346V36.5856C54.0808 37.3924 53.8882 38.103 53.5029 38.7172C53.1213 39.3315 52.5815 39.8094 51.8837 40.1511C51.1859 40.4891 50.379 40.6581 49.4631 40.6581C48.5472 40.6581 47.7403 40.4891 47.0424 40.1511C46.3446 39.8094 45.8049 39.3315 45.4232 38.7172C45.0416 38.103 44.8508 37.3924 44.8508 36.5856V29.3346H47.1678V36.3893C47.1678 36.8182 47.2623 37.2016 47.4513 37.5396C47.644 37.874 47.9129 38.1375 48.2582 38.3302C48.6071 38.5192 49.0087 38.6137 49.4631 38.6137C49.921 38.6137 50.3226 38.5192 50.6679 38.3302C51.0168 38.1375 51.2858 37.874 51.4748 37.5396C51.6638 37.2016 51.7583 36.8182 51.7583 36.3893V29.3346H54.0808ZM55.9676 29.3346L63.4584 29.3346V31.2536H58.2846V33.9578H63.0713V35.8714H58.2846V38.5809H63.4802V40.5H55.9676V29.3346Z" fill="#202124"/>
<rect y="80" width="43.247" height="43.7126" rx="5.49169" fill="#FF7272"/>
<path d="M25.7962 96.191V103.442C25.7962 104.249 25.6036 104.959 25.2183 105.574C24.8367 106.188 24.297 106.666 23.5991 107.008C22.9013 107.346 22.0944 107.515 21.1785 107.515C20.2626 107.515 19.4557 107.346 18.7579 107.008C18.06 106.666 17.5203 106.188 17.1387 105.574C16.757 104.959 16.5662 104.249 16.5662 103.442V96.191H18.8833V103.246C18.8833 103.675 18.9778 104.058 19.1668 104.396C19.3594 104.73 19.6283 104.994 19.9736 105.187C20.3226 105.376 20.7242 105.47 21.1785 105.47C21.6365 105.47 22.0381 105.376 22.3834 105.187C22.7323 104.994 23.0012 104.73 23.1902 104.396C23.3792 104.058 23.4737 103.675 23.4737 103.246V96.191H25.7962Z" fill="white"/>
<rect x="51.2461" y="80" width="166" height="43.7126" rx="20" fill="#FF7272"/>
<path d="M91.6893 96.191H99.0493V98.1101H94.0063V100.814H98.5586V102.728H94.0063V107.356H91.6893V96.191ZM110.787 101.774C110.787 102.959 110.56 103.984 110.106 104.849C109.655 105.71 109.035 106.37 108.247 106.828C107.458 107.282 106.566 107.509 105.57 107.509C104.574 107.509 103.68 107.282 102.887 106.828C102.099 106.37 101.479 105.708 101.028 104.843C100.581 103.978 100.358 102.955 100.358 101.774C100.358 100.589 100.581 99.5639 101.028 98.6989C101.479 97.8302 102.099 97.1705 102.887 96.7199C103.68 96.2655 104.574 96.0384 105.57 96.0384C106.566 96.0384 107.458 96.2655 108.247 96.7199C109.035 97.1705 109.655 97.8302 110.106 98.6989C110.56 99.5639 110.787 100.589 110.787 101.774ZM108.437 101.774C108.437 100.989 108.319 100.322 108.083 99.7729C107.85 99.2204 107.518 98.8025 107.085 98.519C106.656 98.2355 106.151 98.0937 105.57 98.0937C104.992 98.0937 104.488 98.2355 104.06 98.519C103.631 98.8025 103.298 99.2204 103.062 99.7729C102.826 100.322 102.707 100.989 102.707 101.774C102.707 102.559 102.826 103.226 103.062 103.775C103.298 104.323 103.631 104.741 104.06 105.028C104.488 105.312 104.992 105.454 105.57 105.454C106.151 105.454 106.656 105.312 107.085 105.028C107.518 104.741 107.85 104.323 108.083 103.775C108.319 103.226 108.437 102.559 108.437 101.774ZM112.458 96.191H114.775V105.437H119.578V107.356H112.458V96.191ZM122.113 107.356V105.367H124.915C125.631 105.367 126.229 105.239 126.709 104.985C127.189 104.727 127.548 104.332 127.788 103.802C128.032 103.271 128.154 102.592 128.154 101.763C128.154 100.941 128.032 100.265 127.788 99.7347C127.545 99.2041 127.185 98.8134 126.709 98.5626C126.236 98.3082 125.642 98.181 124.926 98.181H122.064V96.191H125.051C126.164 96.191 127.127 96.4127 127.941 96.8562C128.755 97.2996 129.38 97.9411 129.816 98.7807C130.253 99.6203 130.471 100.614 130.471 101.763C130.471 102.922 130.253 103.922 129.816 104.761C129.38 105.597 128.751 106.239 127.93 106.686C127.112 107.133 126.14 107.356 125.013 107.356H122.113ZM123.394 107.356H121.077V96.191H123.394V107.356ZM132.148 96.191H139.638V98.1101H134.465V100.814H139.251V102.728H134.465V105.437H139.66V107.356H132.148V96.191ZM141.445 96.191H145.817C146.653 96.191 147.371 96.34 147.971 96.6381C148.574 96.9325 149.032 97.3541 149.345 97.9029C149.657 98.4517 149.814 99.0932 149.814 99.8274C149.814 100.565 149.655 101.201 149.339 101.736C149.027 102.27 148.565 102.679 147.954 102.962C147.344 103.246 146.615 103.387 145.768 103.387H142.813V101.512H145.392C145.85 101.512 146.23 101.448 146.532 101.321C146.833 101.194 147.059 101.007 147.208 100.76C147.357 100.513 147.431 100.202 147.431 99.8274C147.431 99.4531 147.357 99.1369 147.208 98.8788C147.059 98.6171 146.831 98.4208 146.526 98.29C146.224 98.1592 145.845 98.0937 145.387 98.0937H143.762V107.356H141.445V96.191ZM150.217 107.356H147.649L144.934 102.281H147.442L150.217 107.356ZM153.738 107.356H151.421V96.191H153.738V107.356ZM164.926 107.356H162.92L158.013 100.264H157.932V107.356H155.615V96.191H157.654L162.522 103.278H162.62V96.191H164.926V107.356ZM174.212 99.7893C174.11 99.4367 173.95 99.135 173.732 98.8842C173.518 98.6298 173.251 98.4354 172.931 98.3009C172.611 98.1628 172.248 98.0937 171.841 98.0937C171.266 98.0937 170.761 98.2391 170.325 98.5299C169.889 98.817 169.549 99.235 169.305 99.7838C169.066 100.333 168.946 100.992 168.946 101.763C168.946 102.541 169.064 103.206 169.3 103.758C169.54 104.307 169.878 104.727 170.314 105.018C170.754 105.308 171.272 105.454 171.868 105.454C172.398 105.454 172.856 105.357 173.242 105.165C173.631 104.969 173.927 104.692 174.13 104.336C174.334 103.98 174.436 103.562 174.436 103.082L174.91 103.153H172.02V101.398H176.676V102.793C176.676 103.753 176.471 104.589 176.06 105.301C175.653 106.013 175.084 106.56 174.354 106.942C173.623 107.32 172.789 107.509 171.851 107.509C170.812 107.509 169.894 107.276 169.098 106.811C168.306 106.346 167.69 105.683 167.25 104.821C166.814 103.96 166.596 102.948 166.596 101.785C166.596 100.607 166.821 99.5857 167.272 98.7207C167.726 97.852 168.348 97.1887 169.136 96.7308C169.925 96.2692 170.814 96.0384 171.802 96.0384C172.631 96.0384 173.389 96.1983 174.076 96.5181C174.766 96.8343 175.33 97.2778 175.766 97.8484C176.202 98.4154 176.471 99.0623 176.573 99.7893H174.212Z" fill="white"/>
<rect y="133.713" width="81.4584" height="43.7126" rx="5.49169" fill="#15E88C"/>
<path d="M14.6717 149.904H19.115C19.9146 149.904 20.5906 150.024 21.1431 150.264C21.6991 150.504 22.1171 150.84 22.397 151.272C22.6768 151.705 22.8168 152.205 22.8168 152.772C22.8168 153.2 22.7314 153.578 22.5605 153.906C22.3897 154.233 22.1516 154.503 21.8463 154.718C21.5447 154.929 21.1958 155.078 20.7996 155.165V155.274C21.2321 155.296 21.6355 155.419 22.0099 155.645C22.3843 155.866 22.6841 156.181 22.9095 156.588C23.1384 156.991 23.2529 157.46 23.2529 157.994C23.2529 158.591 23.1057 159.121 22.8113 159.586C22.5206 160.048 22.0844 160.411 21.5029 160.677C20.9213 160.938 20.2217 161.069 19.4039 161.069H14.6717V149.904ZM18.9459 159.167C19.3785 159.167 19.7365 159.108 20.02 158.992C20.3071 158.876 20.5179 158.714 20.6524 158.507C20.7905 158.3 20.8596 158.053 20.8596 157.766C20.8596 157.457 20.785 157.18 20.636 156.937C20.487 156.693 20.2708 156.504 19.9873 156.37C19.7038 156.235 19.373 156.168 18.995 156.168H16.9887V159.167H18.9459ZM18.7715 154.582C19.095 154.582 19.3857 154.523 19.6438 154.407C19.9055 154.291 20.109 154.125 20.2544 153.911C20.3998 153.693 20.4725 153.439 20.4725 153.148C20.4725 152.875 20.407 152.637 20.2762 152.434C20.1454 152.226 19.9545 152.066 19.7038 151.954C19.4566 151.841 19.1604 151.785 18.8151 151.785H16.9887V154.582H18.7715ZM24.7246 149.904H29.097C29.9329 149.904 30.6508 150.053 31.2505 150.351C31.8538 150.645 32.3118 151.067 32.6243 151.616C32.9369 152.165 33.0932 152.806 33.0932 153.54C33.0932 154.278 32.9351 154.914 32.6189 155.448C32.3063 155.983 31.8447 156.392 31.2341 156.675C30.6235 156.959 29.8948 157.1 29.0479 157.1H26.093V155.225H28.6717C29.1297 155.225 29.5095 155.161 29.8112 155.034C30.1128 154.907 30.3382 154.72 30.4872 154.473C30.6362 154.225 30.7107 153.915 30.7107 153.54C30.7107 153.166 30.6362 152.85 30.4872 152.592C30.3382 152.33 30.111 152.134 29.8057 152.003C29.5041 151.872 29.1242 151.807 28.6663 151.807H27.0416V161.069H24.7246V149.904ZM33.4966 161.069H30.9288L28.2138 155.994H30.7216L33.4966 161.069ZM34.0734 161.069L37.9333 149.904H40.9155L44.7754 161.069H42.2894L39.4653 152.423H39.3781L36.5595 161.069H34.0734ZM42.3984 156.681V158.496H36.4286V156.681H42.3984ZM55.3448 161.069H53.3385L48.4318 153.976H48.3501V161.069H46.033V149.904H48.072L52.9405 156.991H53.0387V149.904H55.3448V161.069ZM58.2627 161.069V159.079H61.065C61.781 159.079 62.3789 158.952 62.8587 158.698C63.3384 158.44 63.6983 158.045 63.9381 157.515C64.1817 156.984 64.3034 156.304 64.3034 155.476C64.3034 154.654 64.1817 153.978 63.9381 153.448C63.6946 152.917 63.3348 152.526 62.8587 152.275C62.3862 152.021 61.7919 151.894 61.0759 151.894H58.2137V149.904H61.2013C62.3135 149.904 63.2766 150.126 64.0908 150.569C64.9049 151.012 65.5301 151.654 65.9662 152.494C66.4024 153.333 66.6205 154.327 66.6205 155.476C66.6205 156.635 66.4024 157.635 65.9662 158.474C65.5301 159.31 64.9013 159.952 64.0799 160.399C63.2621 160.846 62.2899 161.069 61.1631 161.069H58.2627ZM59.5439 161.069H57.2269V149.904H59.5439V161.069Z" fill="#1A1B1E"/>
<rect x="89.459" y="133.713" width="92" height="43.7126" rx="21.8563" fill="#FF7272"/>
<path d="M112.12 161.233C111.277 161.233 110.545 161.051 109.923 160.688C109.305 160.324 108.831 159.817 108.5 159.167C108.17 158.512 108.004 157.762 108.004 156.915C108.004 156.061 108.171 155.309 108.506 154.658C108.84 154.004 109.316 153.495 109.934 153.131C110.552 152.768 111.277 152.586 112.109 152.586C112.825 152.586 113.46 152.717 114.012 152.979C114.565 153.24 114.999 153.613 115.315 154.096C115.631 154.576 115.806 155.134 115.838 155.77H113.685C113.641 155.49 113.552 155.245 113.418 155.034C113.283 154.82 113.107 154.656 112.889 154.543C112.675 154.427 112.426 154.369 112.142 154.369C111.779 154.369 111.461 154.469 111.188 154.669C110.915 154.865 110.703 155.152 110.55 155.53C110.401 155.908 110.327 156.359 110.327 156.882C110.327 157.413 110.401 157.869 110.55 158.251C110.699 158.629 110.91 158.918 111.183 159.118C111.455 159.317 111.775 159.417 112.142 159.417C112.411 159.417 112.653 159.363 112.867 159.254C113.085 159.145 113.263 158.987 113.402 158.78C113.543 158.569 113.638 158.318 113.685 158.027H115.838C115.802 158.66 115.628 159.218 115.315 159.701C115.006 160.184 114.577 160.56 114.028 160.829C113.483 161.098 112.847 161.233 112.12 161.233ZM119.528 161.069H117.244V149.904H119.528V161.069ZM125.087 161.233C124.255 161.233 123.528 161.053 122.907 160.693C122.285 160.333 121.807 159.828 121.473 159.178C121.138 158.523 120.971 157.769 120.971 156.915C120.971 156.054 121.138 155.298 121.473 154.647C121.807 153.993 122.285 153.486 122.907 153.126C123.528 152.766 124.255 152.586 125.087 152.586C125.92 152.586 126.645 152.766 127.263 153.126C127.884 153.486 128.36 153.993 128.691 154.647C129.025 155.298 129.193 156.054 129.193 156.915C129.193 157.769 129.025 158.523 128.691 159.178C128.36 159.828 127.884 160.333 127.263 160.693C126.645 161.053 125.92 161.233 125.087 161.233ZM125.098 159.461C125.476 159.461 125.798 159.352 126.063 159.134C126.332 158.912 126.534 158.609 126.668 158.223C126.806 157.835 126.876 157.393 126.876 156.899C126.876 156.404 126.806 155.965 126.668 155.579C126.534 155.19 126.332 154.885 126.063 154.663C125.798 154.442 125.476 154.331 125.098 154.331C124.713 154.331 124.384 154.442 124.111 154.663C123.842 154.881 123.639 155.185 123.501 155.574C123.363 155.963 123.294 156.404 123.294 156.899C123.294 157.397 123.363 157.838 123.501 158.223C123.639 158.609 123.842 158.912 124.111 159.134C124.384 159.352 124.713 159.461 125.098 159.461ZM135.049 154.413H130.033V152.695H135.049V154.413ZM133.468 150.689V158.502C133.468 158.712 133.501 158.88 133.566 159.003C133.631 159.123 133.722 159.208 133.839 159.259C133.955 159.31 134.097 159.337 134.264 159.341C134.427 159.345 134.725 159.332 135.158 159.303V161.102C134.809 161.157 134.407 161.184 133.953 161.184C133.39 161.184 132.901 161.097 132.487 160.922C132.076 160.748 131.754 160.486 131.522 160.137C131.293 159.785 131.18 159.343 131.184 158.812V150.689H133.468ZM138.925 161.069H136.641V149.904H138.86V154.167H138.958C139.085 153.837 139.265 153.553 139.497 153.317C139.73 153.081 140.01 152.901 140.337 152.777C140.668 152.65 141.042 152.586 141.46 152.586C142.042 152.586 142.551 152.712 142.987 152.962C143.426 153.213 143.764 153.577 144.001 154.053C144.237 154.525 144.355 155.087 144.355 155.737V161.069H142.071V156.135C142.071 155.79 142.013 155.494 141.896 155.247C141.78 154.996 141.607 154.807 141.378 154.68C141.153 154.549 140.88 154.483 140.561 154.483C140.241 154.483 139.957 154.553 139.71 154.691C139.467 154.829 139.274 155.029 139.132 155.29C138.994 155.552 138.925 155.863 138.925 156.223V161.069ZM149.908 161.233C149.061 161.233 148.325 161.058 147.7 160.71C147.078 160.357 146.6 159.857 146.266 159.21C145.931 158.563 145.764 157.8 145.764 156.92C145.764 156.066 145.931 155.312 146.266 154.658C146.604 154 147.078 153.491 147.689 153.131C148.299 152.768 149.008 152.586 149.815 152.586C150.567 152.586 151.24 152.744 151.832 153.061C152.425 153.377 152.892 153.855 153.233 154.494C153.575 155.13 153.746 155.91 153.746 156.833V157.471H146.696V156.043H151.592C151.589 155.705 151.512 155.403 151.363 155.138C151.218 154.872 151.014 154.665 150.753 154.516C150.491 154.367 150.193 154.293 149.859 154.293C149.506 154.293 149.19 154.374 148.91 154.538C148.634 154.702 148.417 154.923 148.261 155.203C148.105 155.483 148.025 155.79 148.021 156.124V157.471C148.021 157.889 148.099 158.253 148.256 158.561C148.416 158.867 148.639 159.103 148.926 159.27C149.217 159.437 149.557 159.521 149.946 159.521C150.204 159.521 150.436 159.486 150.644 159.417C150.854 159.348 151.033 159.252 151.178 159.128C151.327 159.001 151.44 158.854 151.516 158.687H153.686C153.577 159.199 153.355 159.648 153.021 160.033C152.686 160.415 152.254 160.711 151.723 160.922C151.192 161.129 150.587 161.233 149.908 161.233ZM159.961 155.187C159.91 154.885 159.762 154.649 159.519 154.478C159.275 154.304 158.965 154.216 158.587 154.216C158.339 154.216 158.118 154.253 157.922 154.325C157.725 154.394 157.569 154.494 157.453 154.625C157.34 154.756 157.285 154.903 157.289 155.067C157.285 155.263 157.369 155.432 157.54 155.574C157.711 155.716 157.985 155.828 158.363 155.912L159.873 156.217C160.684 156.384 161.287 156.653 161.683 157.024C162.079 157.395 162.279 157.882 162.283 158.485C162.279 159.027 162.123 159.505 161.814 159.919C161.509 160.333 161.076 160.657 160.517 160.889C159.957 161.118 159.31 161.233 158.576 161.233C157.831 161.233 157.186 161.127 156.64 160.917C156.095 160.702 155.666 160.399 155.354 160.006C155.045 159.61 154.859 159.138 154.798 158.589H157.087C157.142 158.916 157.296 159.163 157.551 159.33C157.809 159.497 158.151 159.581 158.576 159.581C158.852 159.581 159.094 159.546 159.301 159.477C159.512 159.405 159.673 159.305 159.786 159.178C159.902 159.047 159.961 158.892 159.961 158.714C159.961 158.496 159.868 158.318 159.682 158.18C159.501 158.042 159.214 157.931 158.821 157.847L157.436 157.575C156.637 157.418 156.033 157.139 155.626 156.735C155.219 156.328 155.017 155.816 155.021 155.198C155.017 154.667 155.161 154.205 155.452 153.813C155.743 153.417 156.153 153.113 156.684 152.902C157.215 152.692 157.836 152.586 158.548 152.586C159.246 152.586 159.855 152.692 160.375 152.902C160.898 153.11 161.305 153.409 161.596 153.802C161.89 154.191 162.058 154.652 162.098 155.187H159.961Z" fill="white"/>
<rect x="189.459" y="133.713" width="78.8907" height="44" rx="5.49169" fill="white"/>
<path d="M214.347 155.63C214.347 156.815 214.12 157.84 213.666 158.705C213.215 159.566 212.596 160.226 211.807 160.684C211.018 161.138 210.126 161.366 209.13 161.366C208.134 161.366 207.24 161.138 206.448 160.684C205.659 160.226 205.039 159.565 204.589 158.7C204.142 157.835 203.918 156.811 203.918 155.63C203.918 154.445 204.142 153.42 204.589 152.555C205.039 151.687 205.659 151.027 206.448 150.576C207.24 150.122 208.134 149.895 209.13 149.895C210.126 149.895 211.018 150.122 211.807 150.576C212.596 151.027 213.215 151.687 213.666 152.555C214.12 153.42 214.347 154.445 214.347 155.63ZM211.998 155.63C211.998 154.845 211.88 154.178 211.643 153.629C211.411 153.077 211.078 152.659 210.646 152.375C210.217 152.092 209.712 151.95 209.13 151.95C208.552 151.95 208.049 152.092 207.62 152.375C207.191 152.659 206.858 153.077 206.622 153.629C206.386 154.178 206.268 154.845 206.268 155.63C206.268 156.415 206.386 157.082 206.622 157.631C206.858 158.18 207.191 158.598 207.62 158.885C208.049 159.168 208.552 159.31 209.13 159.31C209.712 159.31 210.217 159.168 210.646 158.885C211.078 158.598 211.411 158.18 211.643 157.631C211.88 157.082 211.998 156.415 211.998 155.63ZM225.33 161.213H223.324L218.417 154.12H218.335V161.213H216.018V150.047H218.057L222.926 157.135H223.024V150.047H225.33V161.213Z" fill="#1A1B1E"/>
<path d="M234.621 148.713V162.713H250.621V150.713H242.207L240.207 148.713H234.621ZM243.035 148.713H251.621C252.173 148.713 252.621 149.161 252.621 149.713V163.713C252.621 164.265 252.173 164.713 251.621 164.713H233.621C233.069 164.713 232.621 164.265 232.621 163.713V147.713C232.621 147.161 233.069 146.713 233.621 146.713H241.035L243.035 148.713Z" fill="#1A1B1E"/>
</svg>
