<svg width="268" height="40" viewBox="0 0 268 40" fill="none" xmlns="http://www.w3.org/2000/svg">
<g clip-path="url(#clip0_818_40126)">
<path d="M81.5005 20.24C81.5005 19.5646 81.4338 18.8675 81.3227 18.2139H71.6973V22.0701H77.2102C76.9879 23.3119 76.2543 24.4012 75.1651 25.0984L78.4551 27.6038C80.3891 25.8391 81.5005 23.2683 81.5005 20.24Z" fill="#4280EF"/>
<path d="M71.6981 30.0005C74.4546 30.0005 76.7665 29.1072 78.4559 27.5822L75.166 25.0985C74.2545 25.7085 73.0764 26.0571 71.6981 26.0571C69.0306 26.0571 66.7854 24.2924 65.9629 21.9395L62.584 24.4885C64.3179 27.8654 67.8302 30.0005 71.6981 30.0005Z" fill="#34A353"/>
<path d="M65.9606 21.9169C65.5383 20.6751 65.5383 19.3244 65.9606 18.0825L62.5817 15.5117C61.1368 18.344 61.1368 21.6773 62.5817 24.4878L65.9606 21.9169Z" fill="#F6B704"/>
<path d="M71.6981 13.9655C73.1431 13.9437 74.5658 14.4884 75.6105 15.4688L78.5226 12.593C76.6776 10.8936 74.2323 9.97859 71.6981 10.0004C67.828 10.0004 64.3157 12.1355 62.584 15.5124L65.9629 18.0832C66.7854 15.7084 69.0306 13.9655 71.6981 13.9655Z" fill="#E54335"/>
</g>
<path d="M105.482 18.1934C105.343 17.7647 105.143 17.3957 104.882 17.0863C104.625 16.7737 104.31 16.5336 103.94 16.366C103.569 16.1984 103.152 16.1146 102.688 16.1146C102.095 16.1146 101.561 16.2677 101.087 16.5739C100.614 16.8801 100.238 17.3296 99.9611 17.9227C99.6839 18.5157 99.5453 19.2247 99.5453 20.0497C99.5453 20.878 99.6855 21.5886 99.9659 22.1816C100.246 22.7714 100.628 23.2194 101.112 23.5256C101.598 23.8317 102.149 23.9848 102.765 23.9848C103.326 23.9848 103.822 23.864 104.254 23.6222C104.686 23.3805 105.021 23.0389 105.259 22.5974C105.498 22.1526 105.617 21.6354 105.617 21.0456L105.985 21.1229H103.026V20.0401H106.816V21.1036C106.816 21.9093 106.644 22.6167 106.299 23.2258C105.954 23.8349 105.474 24.3055 104.858 24.6374C104.246 24.9694 103.548 25.1354 102.765 25.1354C101.888 25.1354 101.116 24.9291 100.449 24.5166C99.7822 24.1041 99.2649 23.5143 98.8975 22.7472C98.5301 21.9802 98.3464 21.081 98.3464 20.0497C98.3464 19.0216 98.5301 18.1241 98.8975 17.357C99.2649 16.5868 99.7774 15.9954 100.435 15.5829C101.092 15.1703 101.843 14.9641 102.688 14.9641C103.374 14.9641 104.004 15.0994 104.578 15.3702C105.155 15.6409 105.632 16.0212 106.009 16.511C106.386 16.9977 106.636 17.5585 106.758 18.1934H105.482ZM111.54 25.1547C110.873 25.1547 110.283 24.9952 109.771 24.6761C109.262 24.357 108.865 23.9091 108.582 23.3322C108.298 22.7521 108.156 22.0833 108.156 21.326C108.156 20.5622 108.298 19.8902 108.582 19.3101C108.865 18.7267 109.262 18.2756 109.771 17.9565C110.283 17.6374 110.873 17.4779 111.54 17.4779C112.207 17.4779 112.795 17.6374 113.305 17.9565C113.817 18.2756 114.214 18.7267 114.494 19.3101C114.774 19.8902 114.914 20.5622 114.914 21.326C114.914 22.0833 114.774 22.7521 114.494 23.3322C114.214 23.9091 113.817 24.357 113.305 24.6761C112.795 24.9952 112.207 25.1547 111.54 25.1547ZM111.54 24.1105C112.02 24.1105 112.425 23.9848 112.754 23.7334C113.086 23.482 113.332 23.1453 113.493 22.7231C113.654 22.3009 113.735 21.8352 113.735 21.326C113.735 20.8135 113.654 20.3462 113.493 19.924C113.332 19.4986 113.086 19.1586 112.754 18.904C112.425 18.6494 112.02 18.5221 111.54 18.5221C111.057 18.5221 110.651 18.6494 110.322 18.904C109.993 19.1586 109.747 19.4986 109.582 19.924C109.418 20.3462 109.336 20.8135 109.336 21.326C109.336 21.8352 109.418 22.3009 109.582 22.7231C109.747 23.1453 109.993 23.482 110.322 23.7334C110.651 23.9848 111.057 24.1105 111.54 24.1105ZM119.484 25.1547C118.816 25.1547 118.227 24.9952 117.714 24.6761C117.205 24.357 116.809 23.9091 116.525 23.3322C116.241 22.7521 116.1 22.0833 116.1 21.326C116.1 20.5622 116.241 19.8902 116.525 19.3101C116.809 18.7267 117.205 18.2756 117.714 17.9565C118.227 17.6374 118.816 17.4779 119.484 17.4779C120.151 17.4779 120.739 17.6374 121.248 17.9565C121.76 18.2756 122.157 18.7267 122.437 19.3101C122.718 19.8902 122.858 20.5622 122.858 21.326C122.858 22.0833 122.718 22.7521 122.437 23.3322C122.157 23.9091 121.76 24.357 121.248 24.6761C120.739 24.9952 120.151 25.1547 119.484 25.1547ZM119.484 24.1105C119.964 24.1105 120.368 23.9848 120.697 23.7334C121.029 23.482 121.275 23.1453 121.437 22.7231C121.598 22.3009 121.678 21.8352 121.678 21.326C121.678 20.8135 121.598 20.3462 121.437 19.924C121.275 19.4986 121.029 19.1586 120.697 18.904C120.368 18.6494 119.964 18.5221 119.484 18.5221C119 18.5221 118.594 18.6494 118.265 18.904C117.937 19.1586 117.69 19.4986 117.526 19.924C117.361 20.3462 117.279 20.8135 117.279 21.326C117.279 21.8352 117.361 22.3009 117.526 22.7231C117.69 23.1453 117.937 23.482 118.265 23.7334C118.594 23.9848 119 24.1105 119.484 24.1105ZM127.408 27.9392C126.808 27.9392 126.28 27.8554 125.822 27.6878C125.364 27.5203 125 27.2721 124.729 26.9434C124.459 26.6179 124.301 26.2279 124.256 25.7735H125.493C125.545 26.0249 125.654 26.236 125.822 26.4068C125.989 26.5776 126.207 26.7049 126.475 26.7887C126.742 26.8725 127.053 26.9144 127.408 26.9144C128.059 26.9144 128.563 26.7677 128.921 26.4744C129.278 26.1812 129.457 25.7348 129.457 25.1354V23.6271H129.361L129.341 23.6561C129.209 23.872 129.069 24.0638 128.921 24.2314C128.776 24.3957 128.558 24.5456 128.268 24.6809C127.981 24.8163 127.623 24.884 127.195 24.884C126.592 24.884 126.052 24.7357 125.575 24.4392C125.102 24.1427 124.728 23.7173 124.454 23.163C124.18 22.6054 124.043 21.948 124.043 21.1906C124.043 20.4397 124.177 19.7838 124.444 19.2231C124.712 18.6591 125.085 18.2272 125.566 17.9275C126.046 17.6278 126.595 17.4779 127.214 17.4779C127.623 17.4779 127.968 17.5424 128.249 17.6713C128.532 17.8002 128.747 17.9452 128.892 18.1064C129.04 18.2675 129.183 18.4544 129.322 18.6671C129.341 18.6961 129.361 18.7251 129.38 18.7541H129.486V17.5746H130.627V25.203C130.627 25.8186 130.489 26.331 130.211 26.7403C129.934 27.1529 129.552 27.4558 129.066 27.6492C128.582 27.8425 128.03 27.9392 127.408 27.9392ZM127.369 23.8398C127.817 23.8398 128.197 23.735 128.51 23.5256C128.826 23.3161 129.066 23.018 129.23 22.6312C129.394 22.2413 129.477 21.7739 129.477 21.2293C129.477 20.6943 129.396 20.2238 129.235 19.8177C129.074 19.4116 128.834 19.0958 128.515 18.8702C128.199 18.6446 127.817 18.5318 127.369 18.5318C126.908 18.5318 126.516 18.6494 126.194 18.8847C125.875 19.1199 125.635 19.4422 125.474 19.8515C125.313 20.2576 125.232 20.7169 125.232 21.2293C125.232 21.7482 125.314 22.2042 125.479 22.5974C125.643 22.9873 125.883 23.2919 126.199 23.511C126.518 23.7302 126.908 23.8398 127.369 23.8398ZM133.678 25H132.498V15.0994H133.678V25ZM138.67 25.1547C137.964 25.1547 137.349 24.9968 136.823 24.6809C136.301 24.3651 135.9 23.9203 135.62 23.3467C135.339 22.7698 135.199 22.1027 135.199 21.3453C135.199 20.5912 135.339 19.9208 135.62 19.3343C135.9 18.7477 136.293 18.2917 136.799 17.9662C137.309 17.6407 137.893 17.4779 138.554 17.4779C139.118 17.4779 139.642 17.602 140.125 17.8501C140.612 18.0983 141.007 18.4995 141.31 19.0539C141.613 19.6082 141.764 20.3204 141.764 21.1906V21.6837H136.011V20.6782H140.565C140.565 20.2657 140.483 19.895 140.319 19.5663C140.154 19.2376 139.921 18.9814 139.618 18.7977C139.315 18.614 138.963 18.5221 138.564 18.5221C138.129 18.5221 137.745 18.6301 137.413 18.846C137.085 19.0619 136.83 19.3488 136.649 19.7065C136.469 20.061 136.379 20.4429 136.379 20.8522V21.529C136.379 22.0737 136.474 22.5394 136.664 22.9261C136.854 23.3096 137.122 23.6029 137.466 23.8059C137.811 24.009 138.213 24.1105 138.67 24.1105C138.954 24.1105 139.21 24.0734 139.439 23.9993C139.668 23.9252 139.859 23.8237 140.014 23.6948C140.172 23.5658 140.298 23.4208 140.391 23.2597H141.648C141.532 23.6367 141.337 23.9687 141.063 24.2555C140.789 24.5391 140.446 24.7599 140.033 24.9178C139.624 25.0757 139.17 25.1547 138.67 25.1547ZM153.969 24.6036H142.841V23.6948H153.969V24.6036ZM148.903 24.0912H147.839V21.0843H148.903V24.0912ZM152.567 18.5318H145.297V20.9876H144.233V17.6519H151.504V15.7472H144.204V14.8577H152.567V18.5318ZM152.848 21.4033H144.233V20.5138H152.848V21.4033ZM165.947 18.232H163.211V17.3425H165.947V18.232ZM165.928 21.2776H163.114V20.3881H165.928V21.2776ZM168.857 26.1119H167.832V13.9586H168.857V26.1119ZM166.402 25.4931H165.367V14.2873H166.402V25.4931ZM163.685 15.5055C163.681 16.5916 163.52 17.6181 163.201 18.5849C162.885 19.5486 162.386 20.4477 161.703 21.2825C161.023 22.114 160.152 22.8471 159.092 23.482L158.444 22.7086C159.392 22.1478 160.177 21.5048 160.799 20.7797C161.421 20.0546 161.883 19.2666 162.186 18.4157C162.492 17.5649 162.647 16.6593 162.65 15.6989V15.5055H163.685ZM163.076 16.4047H158.986V15.5055H163.076V16.4047ZM181.663 20.9586H170.554V20.0691H181.663V20.9586ZM176.616 20.4655H175.562V18.1934H176.616V20.4655ZM176.461 14.7127C176.461 15.4088 176.236 16.0453 175.784 16.6222C175.333 17.1991 174.737 17.6777 173.996 18.058C173.258 18.4383 172.468 18.6994 171.627 18.8412L171.221 17.9807C171.946 17.884 172.64 17.6777 173.304 17.3619C173.971 17.046 174.511 16.6561 174.924 16.192C175.336 15.7279 175.543 15.2348 175.543 14.7127V14.1423H176.461V14.7127ZM176.625 14.7127C176.625 15.2316 176.833 15.7247 177.249 16.192C177.665 16.6561 178.205 17.046 178.869 17.3619C179.536 17.6777 180.232 17.884 180.957 17.9807L180.522 18.8412C179.69 18.6994 178.907 18.4367 178.172 18.0532C177.438 17.6697 176.843 17.1895 176.389 16.6126C175.937 16.0357 175.713 15.4024 175.717 14.7127V14.1423H176.625V14.7127ZM180.261 26.1119H179.178V23.0083H171.782V22.1478H180.261V26.1119ZM192.061 26.1119H190.997V13.9586H192.061V26.1119ZM194.091 19.866H191.819V18.9669H194.091V19.866ZM189.818 16.8011H182.586V15.9116H189.818V16.8011ZM186.26 17.8066C186.827 17.8066 187.336 17.9243 187.787 18.1595C188.238 18.3948 188.591 18.7251 188.846 19.1506C189.104 19.576 189.234 20.0594 189.238 20.6008C189.234 21.1423 189.104 21.6241 188.846 22.0463C188.591 22.4685 188.238 22.7972 187.787 23.0325C187.336 23.2677 186.827 23.3854 186.26 23.3854C185.689 23.3854 185.177 23.2677 184.722 23.0325C184.271 22.7972 183.917 22.4685 183.659 22.0463C183.404 21.6209 183.278 21.139 183.282 20.6008C183.278 20.0626 183.404 19.5808 183.659 19.1554C183.917 18.7267 184.271 18.3948 184.722 18.1595C185.177 17.9243 185.689 17.8066 186.26 17.8066ZM186.26 18.7058C185.886 18.7058 185.551 18.7864 185.254 18.9475C184.958 19.1087 184.724 19.3343 184.553 19.6243C184.386 19.9144 184.303 20.2399 184.307 20.6008C184.303 20.9618 184.386 21.2857 184.553 21.5725C184.724 21.8593 184.958 22.0833 185.254 22.2445C185.551 22.4024 185.886 22.4797 186.26 22.4765C186.63 22.4797 186.962 22.4024 187.255 22.2445C187.552 22.0833 187.784 21.8593 187.952 21.5725C188.122 21.2857 188.209 20.9618 188.213 20.6008C188.209 20.2399 188.122 19.9144 187.952 19.6243C187.784 19.3343 187.552 19.1087 187.255 18.9475C186.962 18.7864 186.63 18.7058 186.26 18.7058ZM186.782 16.3177H185.708V14.1036H186.782V16.3177ZM204.798 26.1119H203.725V13.9586H204.798V26.1119ZM201.202 15.2831C201.199 16.482 200.999 17.6068 200.602 18.6575C200.209 19.7081 199.589 20.6733 198.741 21.5532C197.897 22.433 196.812 23.192 195.488 23.8301L194.908 22.9503C196.077 22.3959 197.049 21.7417 197.823 20.9876C198.599 20.2334 199.178 19.3939 199.558 18.4689C199.942 17.5407 200.135 16.5336 200.138 15.4475V15.2831H201.202ZM200.583 16.1533H195.468V15.2831H200.583V16.1533Z" fill="#BFBFBF"/>
<rect x="0.5" y="0.5" width="267" height="39" rx="19.5" stroke="#616161"/>
<defs>
<clipPath id="clip0_818_40126">
<rect width="20" height="20" fill="white" transform="translate(61.5 10)"/>
</clipPath>
</defs>
</svg>
