<svg width="32" height="32" viewBox="0 0 32 32" fill="none" xmlns="http://www.w3.org/2000/svg">
<path d="M9.06682 25.2541L8.21954 25.7852L8.21954 25.7852L9.06682 25.2541ZM9.66988 25.3923L9.1387 24.5451L9.13865 24.5451L9.66988 25.3923ZM15.9999 21.4237L16.5311 20.5765L15.9999 20.2434L15.4687 20.5765L15.9999 21.4237ZM22.3299 25.3923L21.7988 26.2396L21.7988 26.2396L22.3299 25.3923ZM9.87499 8.39648H22.1248V6.39648H9.87499V8.39648ZM10 8.27147C10 8.34052 9.94404 8.39648 9.87499 8.39648V6.39648C8.83947 6.39648 8 7.23595 8 8.27147H10ZM10 25.0217V8.27147H8V25.0217H10ZM9.91411 24.7229C9.97019 24.8124 10 24.916 10 25.0217H8C8 25.2919 8.07613 25.5564 8.21954 25.7852L9.91411 24.7229ZM9.13865 24.5451C9.40176 24.3801 9.74901 24.4596 9.9141 24.7229L8.21954 25.7852C8.64134 26.4581 9.52859 26.6612 10.2011 26.2395L9.13865 24.5451ZM15.4687 20.5765L9.1387 24.5451L10.2011 26.2396L16.5311 22.271L15.4687 20.5765ZM22.8611 24.5451L16.5311 20.5765L15.4687 22.271L21.7988 26.2396L22.8611 24.5451ZM22.5623 24.4592C22.6689 24.4592 22.7723 24.4894 22.8611 24.545L21.7988 26.2396C22.0269 26.3826 22.2914 26.4592 22.5623 26.4592V24.4592ZM21.9998 25.0217C21.9998 24.7112 22.2514 24.4592 22.5623 24.4592V26.4592C23.3565 26.4592 23.9998 25.8153 23.9998 25.0217H21.9998ZM21.9998 8.27147V25.0217H23.9998V8.27147H21.9998ZM22.1248 8.39648C22.0558 8.39648 21.9998 8.34051 21.9998 8.27147H23.9998C23.9998 7.23596 23.1604 6.39648 22.1248 6.39648V8.39648Z" fill="#DADADA"/>
</svg>
