<svg width="24" height="24" viewBox="0 0 24 24" fill="none" xmlns="http://www.w3.org/2000/svg">
<path fill-rule="evenodd" clip-rule="evenodd" d="M17.6624 17.7393L17.6624 5.72536L9.16159 5.72536L8 4.17404L19.5 4.17404L19.5 17.7393L17.6624 17.7393Z" fill="white" stroke="white" stroke-width="0.3" stroke-miterlimit="10" stroke-linecap="square"/>
<path fill-rule="evenodd" clip-rule="evenodd" d="M6.33756 6.26074L6.33756 18.2746L14.901 18.2746L16 19.826L4.5 19.826L4.5 6.26074L6.33756 6.26074Z" fill="white" stroke="white" stroke-width="0.3" stroke-miterlimit="10" stroke-linecap="square"/>
<path d="M22.6791 14.1952L22.6788 14.1956L19.2698 19.2566C19.2698 19.2566 19.2698 19.2566 19.2697 19.2566C18.8918 19.816 18.0954 19.816 17.7175 19.2567C17.7174 19.2567 17.7174 19.2566 17.7173 19.2566L14.3213 14.1958L14.3209 14.1952C13.8829 13.5491 14.3368 12.6718 15.0973 12.6718L21.9027 12.6718C22.6632 12.6718 23.1171 13.5491 22.6791 14.1952Z" fill="white" stroke="white" stroke-width="0.3"/>
<path d="M1.32094 9.80481L1.3212 9.80444L4.73021 4.74343C4.73022 4.7434 4.73024 4.74338 4.73026 4.74336C5.10816 4.18401 5.9046 4.18398 6.28255 4.74327C6.28259 4.74332 6.28262 4.74338 6.28266 4.74343L9.67866 9.80422L9.67906 9.80481C10.1171 10.4509 9.66324 11.3282 8.90269 11.3282L2.09731 11.3282C1.33676 11.3282 0.882918 10.4509 1.32094 9.80481Z" fill="white" stroke="white" stroke-width="0.3"/>
</svg>
