<svg width="21" height="20" viewBox="0 0 21 20" fill="none" xmlns="http://www.w3.org/2000/svg">
<g clip-path="url(#clip0_1202_21334)">
<path d="M20.5 15.5497C20.5 18.0078 18.5073 20 16.0501 20H4.94988C2.49266 20 0.5 18.0078 0.5 15.5497V4.4503C0.5 1.99217 2.49266 0 4.94988 0H16.0501C18.5073 0 20.5 1.99217 20.5 4.4503V15.5511V15.5497Z" fill="#F9E000"/>
<path d="M10.4378 3.76562C6.46473 3.76562 3.24414 6.29669 3.24414 9.42068C3.24414 11.4534 4.6079 13.2348 6.65626 14.2316C6.50548 14.7894 6.11157 16.2548 6.03278 16.5682C5.93498 16.9571 6.17541 16.9517 6.33433 16.8477C6.45794 16.7654 8.30526 15.516 9.1026 14.9771C9.53591 15.0406 9.98144 15.0744 10.4378 15.0744C14.4109 15.0744 17.6315 12.5433 17.6315 9.42068C17.6315 6.29804 14.4109 3.76562 10.4378 3.76562Z" fill="#371C1D"/>
<path d="M5.41941 8.37825H6.1597C6.1597 8.37825 6.16377 10.4001 6.1597 10.8715C6.1597 11.2159 6.92987 11.22 6.92851 10.8769L6.93123 8.40526C6.93123 8.40526 7.1798 8.40661 7.66744 8.40661C8.12791 8.40661 8.12791 7.68673 7.66744 7.68673C7.14856 7.68673 5.41533 7.67188 5.41533 7.67188C4.98067 7.67188 4.98203 8.37825 5.41533 8.37825" fill="#F9E000"/>
<mask id="mask0_1202_21334" style="mask-type:luminance" maskUnits="userSpaceOnUse" x="5" y="7" width="4" height="5">
<path d="M5.41941 8.37825H6.1597C6.1597 8.37825 6.16377 10.4001 6.1597 10.8715C6.1597 11.2159 6.92987 11.22 6.92851 10.8769L6.93123 8.40526C6.93123 8.40526 7.1798 8.40661 7.66744 8.40661C8.12791 8.40661 8.12791 7.68673 7.66744 7.68673C7.14856 7.68673 5.41533 7.67188 5.41533 7.67188C4.98067 7.67188 4.98203 8.37825 5.41533 8.37825" fill="white"/>
</mask>
<g mask="url(#mask0_1202_21334)">
<path d="M8.12831 7.67383H4.98242V11.2219H8.12831V7.67383Z" fill="#F9E000"/>
</g>
<path d="M8.96144 8.50808L9.37301 9.79117H8.51455L8.96144 8.50808ZM8.49961 7.90705C8.31759 8.30548 7.6588 10.1896 7.44147 10.6893C7.2839 11.0499 7.96443 11.3444 8.12199 10.9838L8.27005 10.4692H9.6243C9.6243 10.4692 9.57812 10.4908 9.75742 10.9622C9.90276 11.3444 10.6064 11.0797 10.461 10.6974C10.2532 10.1518 9.53329 8.18528 9.40154 7.90705C9.34177 7.77874 9.12444 7.68555 8.9139 7.68555C8.74003 7.68555 8.57024 7.74903 8.49825 7.90705" fill="#F9E000"/>
<mask id="mask1_1202_21334" style="mask-type:luminance" maskUnits="userSpaceOnUse" x="7" y="7" width="4" height="5">
<path d="M8.96144 8.50808L9.37301 9.79117H8.51455L8.96144 8.50808ZM8.49961 7.90705C8.31759 8.30548 7.6588 10.1896 7.44147 10.6893C7.2839 11.0499 7.96443 11.3444 8.12199 10.9838L8.27005 10.4692H9.6243C9.6243 10.4692 9.57812 10.4908 9.75742 10.9622C9.90276 11.3444 10.6064 11.0797 10.461 10.6974C10.2532 10.1518 9.53329 8.18528 9.40154 7.90705C9.34177 7.77874 9.12444 7.68555 8.9139 7.68555C8.74003 7.68555 8.57024 7.74903 8.49825 7.90705" fill="white"/>
</mask>
<g mask="url(#mask1_1202_21334)">
<path d="M10.6084 7.6875H7.2832V11.3477H10.6084V7.6875Z" fill="#F9E000"/>
</g>
<path d="M10.7227 8.02455C10.7227 8.66475 10.7267 10.7285 10.7267 10.7285C10.7267 10.7285 10.667 11.1391 11.0215 11.1391C11.376 11.1391 12.1598 11.135 12.5075 11.135C12.8552 11.135 12.8539 10.3989 12.5061 10.3989C12.1584 10.3989 11.5227 10.3949 11.5227 10.3949C11.5227 10.3949 11.5254 8.48647 11.5241 8.02185C11.5241 7.79765 11.323 7.68555 11.1234 7.68555C10.9237 7.68555 10.7213 7.799 10.7227 8.0232" fill="#F9E000"/>
<mask id="mask2_1202_21334" style="mask-type:luminance" maskUnits="userSpaceOnUse" x="10" y="7" width="3" height="5">
<path d="M10.7227 8.02455C10.7227 8.66475 10.7267 10.7285 10.7267 10.7285C10.7267 10.7285 10.667 11.1391 11.0215 11.1391C11.376 11.1391 12.1598 11.135 12.5075 11.135C12.8552 11.135 12.8539 10.3989 12.5061 10.3989C12.1584 10.3989 11.5227 10.3949 11.5227 10.3949C11.5227 10.3949 11.5254 8.48647 11.5241 8.02185C11.5241 7.79765 11.323 7.68555 11.1234 7.68555C10.9237 7.68555 10.7213 7.799 10.7227 8.0232" fill="white"/>
</mask>
<g mask="url(#mask2_1202_21334)">
<path d="M12.8543 7.6875H10.666V11.1397H12.8543V7.6875Z" fill="#F9E000"/>
</g>
<path d="M12.947 7.92446C12.9552 8.20539 12.9375 10.7446 12.9375 10.9323C12.9375 11.2294 13.6982 11.2281 13.6982 10.9323C13.6982 10.5879 13.6982 9.93284 13.6982 9.93284L13.9209 9.75455L14.8976 11.0782C15.0945 11.3375 15.7153 10.8688 15.5183 10.6108L14.4819 9.25347C14.4819 9.25347 15.1855 8.49712 15.4626 8.22295C15.6243 8.06358 15.123 7.56114 14.9614 7.72187C14.8052 7.87584 13.7022 8.97389 13.7022 8.97389C13.7022 8.97389 13.7117 8.28508 13.7022 7.9042C13.6982 7.75969 13.5202 7.68945 13.3368 7.68945C13.1412 7.68945 12.9416 7.76914 12.9456 7.92446" fill="#F9E000"/>
<mask id="mask3_1202_21334" style="mask-type:luminance" maskUnits="userSpaceOnUse" x="12" y="7" width="4" height="5">
<path d="M12.947 7.92446C12.9552 8.20539 12.9375 10.7446 12.9375 10.9323C12.9375 11.2294 13.6982 11.2281 13.6982 10.9323C13.6982 10.5879 13.6982 9.93284 13.6982 9.93284L13.9209 9.75455L14.8976 11.0782C15.0945 11.3375 15.7153 10.8688 15.5183 10.6108L14.4819 9.25347C14.4819 9.25347 15.1855 8.49712 15.4626 8.22295C15.6243 8.06358 15.123 7.56114 14.9614 7.72187C14.8052 7.87584 13.7022 8.97389 13.7022 8.97389C13.7022 8.97389 13.7117 8.28508 13.7022 7.9042C13.6982 7.75969 13.5202 7.68945 13.3368 7.68945C13.1412 7.68945 12.9416 7.76914 12.9456 7.92446" fill="white"/>
</mask>
<g mask="url(#mask3_1202_21334)">
<path d="M15.7153 7.5625H12.9375V11.3388H15.7153V7.5625Z" fill="#F9E000"/>
</g>
</g>
<defs>
<clipPath id="clip0_1202_21334">
<rect width="20" height="20" fill="white" transform="translate(0.5)"/>
</clipPath>
</defs>
</svg>
