<svg width="21" height="20" viewBox="0 0 21 20" fill="none" xmlns="http://www.w3.org/2000/svg">
<path d="M11.3829 6.75805L12.5614 7.93655C14.8394 10.2146 14.8394 13.9081 12.5614 16.1861L12.2667 16.4808C9.98869 18.7589 6.2952 18.7589 4.01714 16.4808C1.73908 14.2027 1.73908 10.5093 4.01714 8.23118L5.19565 9.40969C3.56846 11.0369 3.56846 13.6751 5.19565 15.3023C6.82283 16.9294 9.46102 16.9294 11.0882 15.3023L11.3829 15.0076C13.01 13.3804 13.01 10.7423 11.3829 9.1151L10.2044 7.93655L11.3829 6.75805ZM16.9808 11.7667L15.8023 10.5882C17.4294 8.96102 17.4294 6.32283 15.8023 4.69565C14.1751 3.06846 11.5369 3.06846 9.90969 4.69565L9.6151 4.99028C7.98788 6.61746 7.98788 9.25569 9.6151 10.8829L10.7936 12.0614L9.6151 13.2399L8.43655 12.0614C6.1585 9.78327 6.1585 6.08982 8.43655 3.81176L8.73118 3.51714C11.0093 1.23908 14.7027 1.23908 16.9808 3.51714C19.2589 5.7952 19.2589 9.48869 16.9808 11.7667Z" fill="white"/>
</svg>
