<svg width="20" height="20" viewBox="0 0 20 20" fill="none" xmlns="http://www.w3.org/2000/svg">
<path d="M17.8489 16.766L17.9196 16.6953L17.8489 16.6246L14.6323 13.4079C15.5559 12.2227 16.1065 10.7324 16.1065 9.11456C16.1065 5.255 12.9741 2.12266 9.11456 2.12266C5.255 2.12266 2.12266 5.255 2.12266 9.11456C2.12266 12.9741 5.255 16.1065 9.11456 16.1065C10.7324 16.1065 12.2227 15.5559 13.4079 14.6323L16.6246 17.8489L16.6953 17.9196L16.766 17.8489L17.8489 16.766ZM14.3749 9.11456C14.3749 10.5388 13.8098 11.8303 12.8911 12.7773C12.8909 12.7775 12.8907 12.7777 12.8905 12.7779L12.7779 12.8905C12.7777 12.8907 12.7775 12.8909 12.7773 12.8911C11.8303 13.8098 10.5388 14.3749 9.11456 14.3749C6.20818 14.3749 3.85419 12.0209 3.85419 9.11456C3.85419 6.20818 6.20818 3.85419 9.11456 3.85419C12.0209 3.85419 14.3749 6.20818 14.3749 9.11456Z" fill="#BFBFBF" stroke="#BFBFBF" stroke-width="0.2"/>
</svg>
