<svg width="24" height="24" viewBox="0 0 24 24" fill="none" xmlns="http://www.w3.org/2000/svg">
<path d="M21.4053 20.1048L21.4761 20.0341L21.4053 19.9634L17.5328 16.0909C18.6452 14.6698 19.3085 12.8804 19.3085 10.9373C19.3085 6.31685 15.5587 2.56699 10.9382 2.56699C6.31783 2.56699 2.56797 6.31685 2.56797 10.9373C2.56797 15.5577 6.31783 19.3076 10.9382 19.3076C12.8814 19.3076 14.6708 18.6442 16.0919 17.5319L19.9644 21.4044L20.0351 21.4751L20.1058 21.4044L21.4053 20.1048ZM17.2707 10.9373C17.2707 12.6519 16.5903 14.2066 15.4843 15.3466C15.4842 15.3468 15.484 15.347 15.4838 15.3472L15.3482 15.4828C15.348 15.483 15.3478 15.4832 15.3476 15.4834C14.2075 16.5893 12.6529 17.2697 10.9382 17.2697C7.43955 17.2697 4.60581 14.436 4.60581 10.9373C4.60581 7.43858 7.43955 4.60483 10.9382 4.60483C14.4369 4.60483 17.2707 7.43858 17.2707 10.9373Z" fill="#BFBFBF" stroke="#BFBFBF" stroke-width="0.2"/>
</svg>
