<svg width="20" height="20" viewBox="0 0 20 20" fill="none" xmlns="http://www.w3.org/2000/svg">
<path d="M10 3C14.4857 3 18.2176 6.23313 19 10.5C18.2176 14.7668 14.4857 18 10 18C5.51428 18 1.78241 14.7668 1 10.5C1.78241 6.23313 5.51428 3 10 3ZM10 16.3333C13.5236 16.3333 16.5387 13.8767 17.3019 10.5C16.5387 7.12336 13.5236 4.66667 10 4.66667C6.47635 4.66667 3.46124 7.12336 2.69802 10.5C3.46124 13.8767 6.47635 16.3333 10 16.3333ZM10 14.25C7.93249 14.25 6.25645 12.5711 6.25645 10.5C6.25645 8.42893 7.93249 6.75 10 6.75C12.0675 6.75 13.7436 8.42893 13.7436 10.5C13.7436 12.5711 12.0675 14.25 10 14.25ZM10 12.5833C11.1486 12.5833 12.0798 11.6506 12.0798 10.5C12.0798 9.34942 11.1486 8.41667 10 8.41667C8.85142 8.41667 7.92025 9.34942 7.92025 10.5C7.92025 11.6506 8.85142 12.5833 10 12.5833Z" fill="#8D8D8D"/>
</svg>
