<svg width="24" height="23" viewBox="0 0 24 23" fill="none" xmlns="http://www.w3.org/2000/svg">
<path fill-rule="evenodd" clip-rule="evenodd" d="M17.6624 17L17.6624 5.48668L9.16159 5.48668L8 4L19.5 4L19.5 17L17.6624 17Z" fill="white" stroke="white" stroke-width="0.3" stroke-miterlimit="10" stroke-linecap="square"/>
<path fill-rule="evenodd" clip-rule="evenodd" d="M6.33756 6L6.33756 17.5133L14.901 17.5133L16 19L4.5 19L4.5 6L6.33756 6Z" fill="white" stroke="white" stroke-width="0.3" stroke-miterlimit="10" stroke-linecap="square"/>
<path d="M22.6808 13.5977L22.6805 13.5981L19.2715 18.4482C19.2715 18.4482 19.2714 18.4482 19.2714 18.4483C18.8938 18.9839 18.0935 18.9839 17.7158 18.4484C17.7158 18.4483 17.7157 18.4483 17.7156 18.4482L14.3197 13.5983L14.3192 13.5977C13.8907 12.9919 14.3263 12.15 15.0973 12.15L21.9027 12.15C22.6737 12.15 23.1093 12.9919 22.6808 13.5977Z" fill="white" stroke="white" stroke-width="0.3"/>
<path d="M1.31924 9.40233L1.31951 9.40195L4.72851 4.55182C4.72853 4.55179 4.72855 4.55176 4.72857 4.55174C5.10619 4.01613 5.90651 4.01609 6.2842 4.5516C6.28425 4.55167 6.2843 4.55175 6.28435 4.55182L9.68034 9.40173L9.68076 9.40232C10.1093 10.0081 9.67366 10.85 8.90269 10.85L2.09731 10.85C1.32634 10.85 0.890679 10.0081 1.31924 9.40233Z" fill="white" stroke="white" stroke-width="0.3"/>
</svg>
